<svg width="32" height="34" viewBox="0 0 32 34" fill="none" xmlns="http://www.w3.org/2000/svg">
<path d="M13.6 0.303999C17.152 0.303999 20.256 1.008 22.912 2.416C25.568 3.824 27.616 5.808 29.056 8.368C30.528 10.896 31.264 13.824 31.264 17.152C31.264 20.448 30.528 23.376 29.056 25.936C27.616 28.496 25.552 30.48 22.864 31.888C20.208 33.296 17.12 34 13.6 34H0.976V0.303999H13.6ZM13.072 26.896C16.176 26.896 18.592 26.048 20.32 24.352C22.048 22.656 22.912 20.256 22.912 17.152C22.912 14.048 22.048 11.632 20.32 9.904C18.592 8.176 16.176 7.312 13.072 7.312H9.184V26.896H13.072Z" fill="#039300"/>
</svg>
