<svg width="218" height="46" viewBox="0 0 218 46" fill="none" xmlns="http://www.w3.org/2000/svg">
<path d="M17.8 0.0719986C22.536 0.0719986 26.6747 1.01066 30.216 2.888C33.7573 4.76533 36.488 7.41066 38.408 10.824C40.3707 14.1947 41.352 18.0987 41.352 22.536C41.352 26.9307 40.3707 30.8347 38.408 34.248C36.488 37.6613 33.736 40.3067 30.152 42.184C26.6107 44.0613 22.4933 45 17.8 45H0.968V0.0719986H17.8ZM17.096 35.528C21.2347 35.528 24.456 34.3973 26.76 32.136C29.064 29.8747 30.216 26.6747 30.216 22.536C30.216 18.3973 29.064 15.176 26.76 12.872C24.456 10.568 21.2347 9.416 17.096 9.416H11.912V35.528H17.096ZM63.724 45.512C60.2253 45.512 57.068 44.7653 54.252 43.272C51.4787 41.7787 49.2813 39.6453 47.66 36.872C46.0813 34.0987 45.292 30.856 45.292 27.144C45.292 23.4747 46.1027 20.2533 47.724 17.48C49.3453 14.664 51.564 12.5093 54.38 11.016C57.196 9.52266 60.3533 8.776 63.852 8.776C67.3507 8.776 70.508 9.52266 73.324 11.016C76.14 12.5093 78.3587 14.664 79.98 17.48C81.6013 20.2533 82.412 23.4747 82.412 27.144C82.412 30.8133 81.58 34.056 79.916 36.872C78.2947 39.6453 76.0547 41.7787 73.196 43.272C70.38 44.7653 67.2227 45.512 63.724 45.512ZM63.724 36.04C65.8147 36.04 67.5853 35.272 69.036 33.736C70.5293 32.2 71.276 30.0027 71.276 27.144C71.276 24.2853 70.5507 22.088 69.1 20.552C67.692 19.016 65.9427 18.248 63.852 18.248C61.7187 18.248 59.948 19.016 58.54 20.552C57.132 22.0453 56.428 24.2427 56.428 27.144C56.428 30.0027 57.1107 32.2 58.476 33.736C59.884 35.272 61.6333 36.04 63.724 36.04ZM104.474 45.512C100.975 45.512 97.818 44.7653 95.002 43.272C92.2287 41.7787 90.0313 39.6453 88.41 36.872C86.8313 34.0987 86.042 30.856 86.042 27.144C86.042 23.4747 86.8527 20.2533 88.474 17.48C90.0953 14.664 92.314 12.5093 95.13 11.016C97.946 9.52266 101.103 8.776 104.602 8.776C108.101 8.776 111.258 9.52266 114.074 11.016C116.89 12.5093 119.109 14.664 120.73 17.48C122.351 20.2533 123.162 23.4747 123.162 27.144C123.162 30.8133 122.33 34.056 120.666 36.872C119.045 39.6453 116.805 41.7787 113.946 43.272C111.13 44.7653 107.973 45.512 104.474 45.512ZM104.474 36.04C106.565 36.04 108.335 35.272 109.786 33.736C111.279 32.2 112.026 30.0027 112.026 27.144C112.026 24.2853 111.301 22.088 109.85 20.552C108.442 19.016 106.693 18.248 104.602 18.248C102.469 18.248 100.698 19.016 99.29 20.552C97.882 22.0453 97.178 24.2427 97.178 27.144C97.178 30.0027 97.8607 32.2 99.226 33.736C100.634 35.272 102.383 36.04 104.474 36.04Z" fill="#039300"/>
<path d="M156.488 17.992V27.08H128.328V17.992H156.488Z" fill="#312F35"/>
<path d="M177.037 0.0719986V45H166.093V0.0719986H177.037ZM217.288 0.0719986V8.84H205.384V45H194.44V8.84H182.536V0.0719986H217.288Z" fill="#0065C1"/>
</svg>
