<svg width="47" height="47" viewBox="0 0 47 47" fill="none" xmlns="http://www.w3.org/2000/svg">
<path d="M44.4281 26.0067C44.2523 25.9047 44.1109 25.7564 44.0208 25.5797C43.9307 25.4029 43.8958 25.2051 43.9201 25.0099C43.9611 24.5144 43.9836 24.0092 43.9836 23.5C43.9836 22.9908 43.9611 22.4856 43.9201 21.9862C43.8961 21.7915 43.9312 21.5944 44.0213 21.4183C44.1114 21.2422 44.2526 21.0947 44.4281 20.9933C45.6087 20.3401 46.47 19.2659 46.8233 18.0063C47.1766 16.7467 46.9929 15.4046 46.3126 14.2743L43.2605 9.22375C42.573 8.09657 41.446 7.27601 40.1266 6.94195C38.8073 6.60789 37.4032 6.7876 36.2222 7.44167C36.0547 7.53623 35.8623 7.58265 35.6679 7.57535C35.4736 7.56806 35.2855 7.50737 35.1263 7.40054C34.2219 6.80625 33.2691 6.28234 32.277 5.83388C32.0972 5.75215 31.9463 5.62213 31.8426 5.45971C31.739 5.29729 31.687 5.10952 31.6932 4.91933C31.6916 3.61512 31.1489 2.36477 30.1843 1.44256C29.2196 0.520339 27.9118 0.00155479 26.5476 0L20.4515 0C19.0845 0.00259459 17.7745 0.524132 16.8095 1.44994C15.8446 2.37574 15.3038 3.63001 15.3059 4.93696C15.3063 5.12197 15.2519 5.30331 15.149 5.45997C15.046 5.61663 14.8987 5.7422 14.7242 5.82213C13.7312 6.27015 12.7776 6.79407 11.8728 7.38879C11.7111 7.49574 11.5206 7.55593 11.3241 7.56218C11.1276 7.56844 10.9334 7.52048 10.7646 7.42404C9.58283 6.77244 8.17881 6.59598 6.86101 6.93343C5.54321 7.27088 4.41943 8.09465 3.73654 9.22375L0.686466 14.2743C0.006164 15.4046 -0.177485 16.7467 0.175796 18.0063C0.529076 19.2659 1.39045 20.3401 2.571 20.9933C2.74682 21.0953 2.88822 21.2436 2.9783 21.4203C3.06838 21.5971 3.10334 21.7949 3.079 21.9901C3.03804 22.4856 3.0155 22.9908 3.0155 23.5C3.0155 24.0092 3.03804 24.5144 3.079 25.0138C3.10303 25.2085 3.0679 25.4056 2.97781 25.5817C2.88772 25.7578 2.74649 25.9053 2.571 26.0067C1.39045 26.6599 0.529076 27.7342 0.175796 28.9937C-0.177485 30.2533 0.006164 31.5954 0.686466 32.7257L3.73859 37.7763C4.42404 38.9055 5.55028 39.7285 6.86994 40.0644C8.18961 40.4004 9.59481 40.2219 10.7769 39.5681C10.9442 39.4731 11.1368 39.4264 11.3312 39.4337C11.5257 39.441 11.7138 39.502 11.8728 39.6092C12.7772 40.2035 13.73 40.7274 14.7221 41.1759C14.9002 41.257 15.0501 41.3855 15.1536 41.546C15.2572 41.7065 15.3101 41.8921 15.3059 42.0807C15.3076 43.3849 15.8502 44.6352 16.8148 45.5574C17.7795 46.4797 19.0873 46.9984 20.4515 47H26.5476C27.9146 46.9974 29.2247 46.4759 30.1896 45.5501C31.1545 44.6243 31.6954 43.37 31.6932 42.063C31.6928 41.878 31.7472 41.6967 31.8502 41.54C31.9531 41.3834 32.1004 41.2578 32.2749 41.1779C33.2679 40.7299 34.2215 40.2059 35.1263 39.6112C35.288 39.5043 35.4785 39.4441 35.675 39.4378C35.8715 39.4316 36.0657 39.4795 36.2345 39.576C37.4167 40.226 38.8201 40.4016 40.1374 40.0642C41.4548 39.7269 42.5785 38.9042 43.2626 37.7763L46.3126 32.7277C46.9936 31.5972 47.1776 30.2546 46.8243 28.9946C46.471 27.7345 45.6092 26.6599 44.4281 26.0067ZM39.8868 23.5C39.8868 23.9015 39.8684 24.299 39.8356 24.6907C39.7541 25.6236 39.9496 26.5595 40.3996 27.391C40.8497 28.2224 41.536 28.9155 42.3797 29.3907C42.4991 29.4566 42.6037 29.5443 42.6876 29.6489C42.7714 29.7535 42.8329 29.8729 42.8685 30.0002C42.9041 30.1275 42.913 30.2603 42.8949 30.3909C42.8767 30.5215 42.8318 30.6475 42.7628 30.7615L39.7168 35.8101C39.5746 36.0408 39.3424 36.2082 39.0713 36.2754C38.8001 36.3426 38.5121 36.3041 38.2706 36.1685C37.4303 35.709 36.4717 35.485 35.5045 35.5221C34.5373 35.5591 33.6005 35.8558 32.8014 36.378C32.0777 36.854 31.3153 37.2737 30.5215 37.6333C29.6446 38.0351 28.9045 38.666 28.3869 39.453C27.8693 40.24 27.5952 41.151 27.5964 42.0807C27.5964 42.3466 27.4859 42.6016 27.2892 42.7897C27.0925 42.9777 26.8257 43.0833 26.5476 43.0833H20.4515C20.3124 43.0828 20.1747 43.056 20.0465 43.0043C19.9183 42.9526 19.8021 42.8772 19.7046 42.7823C19.607 42.6874 19.5302 42.575 19.4784 42.4515C19.4265 42.3281 19.4009 42.196 19.4027 42.063C19.4003 41.1369 19.1243 40.2303 18.6064 39.4476C18.0885 38.6649 17.3499 38.038 16.4756 37.6392C15.6827 37.2792 14.921 36.8594 14.1977 36.3839C13.396 35.8612 12.4562 35.5655 11.4865 35.5309C10.5168 35.4962 9.55651 35.724 8.71622 36.188C8.47519 36.3209 8.18888 36.357 7.92009 36.2883C7.65129 36.2197 7.42194 36.0519 7.28233 35.8218L4.24455 30.7693C4.10557 30.5389 4.06784 30.2652 4.13965 30.0082C4.21146 29.7512 4.38693 29.532 4.6276 29.3985C5.47131 28.9234 6.15765 28.2302 6.6077 27.3988C7.05775 26.5674 7.25325 25.6314 7.17172 24.6985C7.13075 24.299 7.11231 23.9015 7.11231 23.5C7.11231 23.0985 7.13075 22.701 7.16352 22.3093C7.24505 21.3764 7.04955 20.4405 6.5995 19.609C6.14945 18.7776 5.46312 18.0845 4.6194 17.6093C4.50004 17.5434 4.39543 17.4557 4.31156 17.3511C4.22769 17.2465 4.16621 17.1271 4.13064 16.9998C4.09506 16.8725 4.08609 16.7397 4.10423 16.6091C4.12237 16.4785 4.16726 16.3525 4.23635 16.2385L7.28233 11.184C7.35214 11.0692 7.44508 10.9687 7.55577 10.8885C7.66646 10.8082 7.79271 10.7497 7.9272 10.7164C8.06169 10.683 8.20176 10.6755 8.3393 10.6943C8.47685 10.7131 8.60913 10.7577 8.72851 10.8257C9.56864 11.2856 10.5273 11.5098 11.4946 11.4728C12.462 11.4357 13.3988 11.1388 14.1977 10.6161C14.9214 10.1402 15.6838 9.72039 16.4776 9.36083C17.3536 8.95946 18.093 8.32949 18.6106 7.54362C19.1281 6.75775 19.4028 5.848 19.4027 4.91933C19.4027 4.65341 19.5132 4.39838 19.7099 4.21034C19.9066 4.0223 20.1734 3.91667 20.4515 3.91667H26.5476C26.6867 3.91717 26.8244 3.94404 26.9526 3.99571C27.0808 4.04738 27.197 4.12283 27.2945 4.21771C27.3921 4.31258 27.469 4.425 27.5208 4.54845C27.5726 4.67191 27.5983 4.80395 27.5964 4.93696C27.5988 5.86309 27.8749 6.76972 28.3927 7.55241C28.9106 8.33509 29.6493 8.96197 30.5235 9.36083C31.3164 9.72083 32.0781 10.1406 32.8014 10.6161C33.6033 11.1384 34.543 11.4338 35.5126 11.4684C36.4823 11.5031 37.4425 11.2755 38.2829 10.812C38.5239 10.6791 38.8102 10.643 39.079 10.7117C39.3478 10.7803 39.5772 10.9481 39.7168 11.1782L42.7546 16.2307C42.8935 16.4611 42.9313 16.7348 42.8595 16.9918C42.7877 17.2488 42.6122 17.468 42.3715 17.6015C41.5278 18.0766 40.8415 18.7698 40.3914 19.6012C39.9414 20.4326 39.7459 21.3686 39.8274 22.3015C39.8684 22.701 39.8868 23.1083 39.8868 23.5Z" fill="black"/>
<path d="M23.4998 13.7085C21.4742 13.7085 19.494 14.2828 17.8097 15.3587C16.1254 16.4346 14.8126 17.9639 14.0374 19.7531C13.2623 21.5422 13.0594 23.511 13.4546 25.4104C13.8498 27.3098 14.8253 29.0545 16.2576 30.4239C17.69 31.7933 19.515 32.7259 21.5017 33.1037C23.4885 33.4815 25.5478 33.2876 27.4193 32.5465C29.2908 31.8054 30.8904 30.5504 32.0158 28.9401C33.1412 27.3299 33.7419 25.4368 33.7419 23.5002C33.7386 20.9042 32.6585 18.4155 30.7385 16.5798C28.8184 14.7442 26.2152 13.7116 23.4998 13.7085ZM23.4998 29.3752C22.2844 29.3752 21.0963 29.0306 20.0857 28.385C19.0752 27.7395 18.2875 26.8219 17.8224 25.7484C17.3573 24.6749 17.2356 23.4936 17.4727 22.354C17.7098 21.2144 18.2951 20.1675 19.1545 19.3459C20.0139 18.5243 21.1089 17.9647 22.301 17.738C23.493 17.5114 24.7286 17.6277 25.8515 18.0724C26.9744 18.517 27.9342 19.27 28.6094 20.2362C29.2846 21.2023 29.6451 22.3382 29.6451 23.5002C29.6451 25.0583 28.9976 26.5526 27.8452 27.6544C26.6927 28.7562 25.1297 29.3752 23.4998 29.3752Z" fill="black"/>
</svg>
