<svg width="44" height="44" viewBox="0 0 44 44" fill="none" xmlns="http://www.w3.org/2000/svg">
<path d="M42.7109 0H13.4922C13.1503 0 12.8224 0.135813 12.5807 0.377561C12.3389 0.619309 12.2031 0.94719 12.2031 1.28907V12.1173H1.28906C0.947182 12.1173 0.619304 12.2531 0.377558 12.4948C0.135812 12.7366 0 13.0645 0 13.4064L0 35.7503C0 36.0922 0.135812 36.4201 0.377558 36.6618C0.619304 36.9035 0.947182 37.0394 1.28906 37.0394H5.24219V42.7113C5.24225 42.9452 5.30596 43.1747 5.42647 43.3751C5.54699 43.5756 5.71978 43.7395 5.92633 43.8492C6.13287 43.959 6.36539 44.0105 6.59897 43.9982C6.83254 43.9859 7.05838 43.9103 7.25227 43.7795L17.2382 37.0394H30.5078C30.8497 37.0394 31.1776 36.9035 31.4193 36.6618C31.6611 36.4201 31.7969 36.0922 31.7969 35.7503V24.9221H42.7109C43.0528 24.9221 43.3807 24.7863 43.6224 24.5445C43.8642 24.3028 44 23.9749 44 23.633V1.28907C44 0.94719 43.8642 0.619309 43.6224 0.377561C43.3807 0.135813 43.0528 0 42.7109 0ZM29.2188 34.4612H16.8438C16.5868 34.4613 16.3357 34.5382 16.1227 34.6821L7.82031 40.2861V35.7503C7.82031 35.4084 7.6845 35.0805 7.44276 34.8388C7.20101 34.597 6.87313 34.4612 6.53125 34.4612H2.57812V14.6954H29.2188V34.4612ZM41.4219 22.3439H31.7969V13.4064C31.7969 13.0645 31.6611 12.7366 31.4193 12.4948C31.1776 12.2531 30.8497 12.1173 30.5078 12.1173H14.7812V2.57815H41.4219V22.3439Z" fill="black"/>
</svg>
